# xmcd
#
# Track frame offsets: 
#        150
#        40777
#        74465
#        107494
#        132102
#        157182
#        183751
#        205583
#        225018
#        253082
#
# Disc length: 3741 seconds
#
# Revision: 2
# Processed by: cddbd v1.5.2PL0 Copyright (c) Steve Scherf et al.
# Submitted via: ExactAudioCopy v1.0b3
#
DISCID=790e9b0a
DTITLE=Róisín Murphy - Live at Ancienne Belgique 19.11.07
DYEAR=2007
DGENRE=Electronic
TTITLE0=Cry Baby
TTITLE1=You Know Me Better
TTITLE2=Checkin' On Me
TTITLE3=Dear Miami
TTITLE4=Primitive
TTITLE5=Sow Into You
TTITLE6=Footprints
TTITLE7=Movie Star
TTITLE8=Scarlet Ribbons
TTITLE9=The Truth
EXTD=
EXTT0=
EXTT1=
EXTT2=
EXTT3=
EXTT4=
EXTT5=
EXTT6=
EXTT7=
EXTT8=
EXTT9=
PLAYORDER=
